<?xml version="1.0" standalone="no"?>
<!DOCTYPE svg PUBLIC "-//W3C//DTD SVG 20010904//EN"
 "http://www.w3.org/TR/2001/REC-SVG-20010904/DTD/svg10.dtd">
<svg version="1.0" xmlns="http://www.w3.org/2000/svg"
 width="649.000000pt" height="596.000000pt" viewBox="0 0 649.000000 596.000000"
 preserveAspectRatio="xMidYMid meet">

<g transform="translate(0.000000,596.000000) scale(0.100000,-0.100000)"
fill="#000000" stroke="none">
<path d="M2700 5193 c-84 -14 -184 -61 -252 -118 -54 -45 -95 -102 -181 -252
-43 -73 -111 -193 -154 -265 -42 -73 -128 -223 -191 -333 -63 -110 -160 -279
-217 -375 -56 -96 -163 -281 -237 -410 -422 -730 -555 -962 -589 -1020 -20
-36 -84 -147 -142 -248 -125 -216 -150 -283 -150 -397 0 -202 88 -355 266
-465 114 -70 191 -94 302 -95 154 0 269 47 375 154 51 51 87 104 160 231 51
91 132 233 180 315 48 83 124 215 170 295 145 253 181 310 191 304 6 -3 9
-171 9 -422 -1 -391 0 -421 19 -482 62 -199 210 -333 422 -380 101 -23 142
-24 234 -5 170 36 316 148 388 298 20 42 37 79 37 82 0 3 11 22 24 43 13 20
79 134 146 252 301 526 358 620 372 620 6 0 9 -147 7 -417 -3 -377 -1 -424 15
-477 42 -141 132 -262 246 -331 127 -77 337 -103 470 -57 165 56 288 168 344
310 9 24 57 114 107 200 51 86 134 231 187 322 52 91 132 228 177 305 115 195
144 257 162 339 27 129 -3 283 -77 394 -92 138 -312 262 -465 262 -19 0 -36 4
-39 9 -3 4 -6 311 -7 681 -1 726 -1 733 -55 830 -63 112 -136 178 -276 249
-155 79 -319 81 -474 6 -102 -49 -174 -121 -244 -245 -29 -52 -101 -176 -158
-275 -58 -99 -138 -236 -177 -305 -87 -151 -231 -399 -244 -420 -5 -8 -12 -12
-15 -9 -3 3 -6 198 -7 433 0 385 -2 432 -18 479 -32 93 -62 140 -135 213 -136
136 -335 206 -506 177z"/>
</g>
</svg>
